<svg xmlns="http://www.w3.org/2000/svg" aria-label="meander" viewBox="0 0 527 186"><title>meander</title><defs><linearGradient id="a" x1="0" x2="527" y1="186" y2="0" gradientUnits="userSpaceOnUse"><stop offset="0%" stop-color="#16aeeb"/><stop offset="20%" stop-color="#28b7ee"/><stop offset="36%" stop-color="#b7d7d9"/><stop offset="48%" stop-color="#c9a46b"/><stop offset="61%" stop-color="#f29a22"/><stop offset="80%" stop-color="#ff9700"/><stop offset="100%" stop-color="#f28a00"/></linearGradient><linearGradient id="c" x1="0" x2="527" y1="0" y2="186" gradientUnits="userSpaceOnUse"><stop offset="0%" stop-color="#fff"/><stop offset="30%" stop-color="#fff" stop-opacity=".55"/><stop offset="60%" stop-color="#fff" stop-opacity="0"/><stop offset="100%" stop-color="#fff" stop-opacity="0"/></linearGradient><linearGradient id="d" x1="0" x2="527" y1="0" y2="186" gradientUnits="userSpaceOnUse"><stop offset="0%" stop-color="#1a2540" stop-opacity="0"/><stop offset="50%" stop-color="#1a2540" stop-opacity="0"/><stop offset="80%" stop-color="#1a2540" stop-opacity=".45"/><stop offset="100%" stop-color="#1a2540" stop-opacity=".75"/></linearGradient><linearGradient id="e" x1="0" x2="527" y1="0" y2="186" gradientUnits="userSpaceOnUse"><stop offset="0%" stop-color="#1a2540" stop-opacity=".3"/><stop offset="100%" stop-color="#1a2540" stop-opacity=".8"/></linearGradient><clipPath id="b"><path d="M6.8 148.2c-18.34 22.42 4 47.59 33.6 32.4C98.116 135.107 148.947 62.095 225.6 46.3c-110.607 161.854 28.969 89.99 119 31.7-63.722 116.418 94.408 15.872 131.883-17.185 23.445 7.496 36.328-5.19 36.328-22.575 0-13.807-11.218-24.18-25-25-17.31-1.029-30.821 18.582-21.569 36.39C449.905 60.683 404.194 89.017 385 90c49.792-105.248-92.83-24.912-134-5.7C354.095-87.301 53.359 91.294 6.8 148.2"/></clipPath></defs><path fill="url(#a)" d="M6.8 148.2c-18.34 22.42 4 47.59 33.6 32.4C98.116 135.107 148.947 62.095 225.6 46.3c-110.607 161.854 28.969 89.99 119 31.7-63.722 116.418 94.408 15.872 131.883-17.185 23.445 7.496 36.328-5.19 36.328-22.575 0-13.807-11.218-24.18-25-25-17.31-1.029-30.821 18.582-21.569 36.39C449.905 60.683 404.194 89.017 385 90c49.792-105.248-92.83-24.912-134-5.7C354.095-87.301 53.359 91.294 6.8 148.2"/><g fill="none" stroke-linecap="round" stroke-linejoin="round" clip-path="url(#b)"><path stroke="url(#c)" stroke-width="10" d="M6.8 148.2c-18.34 22.42 4 47.59 33.6 32.4C98.116 135.107 148.947 62.095 225.6 46.3c-110.607 161.854 28.969 89.99 119 31.7-63.722 116.418 94.408 15.872 131.883-17.185 23.445 7.496 36.328-5.19 36.328-22.575 0-13.807-11.218-24.18-25-25-17.31-1.029-30.821 18.582-21.569 36.39C449.905 60.683 404.194 89.017 385 90c49.792-105.248-92.83-24.912-134-5.7C354.095-87.301 53.359 91.294 6.8 148.2"/><path stroke="url(#d)" stroke-width="7" d="M6.8 148.2c-18.34 22.42 4 47.59 33.6 32.4C98.116 135.107 148.947 62.095 225.6 46.3c-110.607 161.854 28.969 89.99 119 31.7-63.722 116.418 94.408 15.872 131.883-17.185 23.445 7.496 36.328-5.19 36.328-22.575 0-13.807-11.218-24.18-25-25-17.31-1.029-30.821 18.582-21.569 36.39C449.905 60.683 404.194 89.017 385 90c49.792-105.248-92.83-24.912-134-5.7C354.095-87.301 53.359 91.294 6.8 148.2"/></g><path fill="none" stroke="url(#e)" stroke-linejoin="round" stroke-width="1.2" d="M6.8 148.2c-18.34 22.42 4 47.59 33.6 32.4C98.116 135.107 148.947 62.095 225.6 46.3c-110.607 161.854 28.969 89.99 119 31.7-63.722 116.418 94.408 15.872 131.883-17.185 23.445 7.496 36.328-5.19 36.328-22.575 0-13.807-11.218-24.18-25-25-17.31-1.029-30.821 18.582-21.569 36.39C449.905 60.683 404.194 89.017 385 90c49.792-105.248-92.83-24.912-134-5.7C354.095-87.301 53.359 91.294 6.8 148.2Z"/></svg>