<svg xmlns="http://www.w3.org/2000/svg" viewBox="0 0 527 186" role="img" aria-label="meander">
  <title>meander</title>
  <path d="m 6.8007812,148.19922 c -18.3400002,22.42 3.9996098,47.59039 33.5996098,32.40039 C 98.116334,135.10678 148.94736,62.094957 225.59961,46.300781 114.99336,208.15441 254.56896,136.29003 344.59961,78 c -63.72123,116.41768 94.40871,15.871999 131.88376,-17.184578 23.44463,7.495848 36.32718,-5.19017 36.32718,-22.575188 0,-13.807119 -11.2172,-24.180865 -25,-25 C 470.50062,12.211475 456.9899,31.822493 466.2422,49.630561 449.90467,60.68243 404.19396,89.015694 385,90 434.79234,-15.24832 292.17038,65.087853 251,84.300781 354.09526,-87.302434 53.358959,91.29269 6.8007812,148.19922 Z" fill="#000000"/>
</svg>
