<svg xmlns="http://www.w3.org/2000/svg" aria-label="meander" viewBox="0 0 60 60"><title>meander</title><defs><linearGradient id="a" x1="0" x2="60" y1="60" y2="0" gradientUnits="userSpaceOnUse"><stop offset="0%" stop-color="#16aeeb"/><stop offset="20%" stop-color="#28b7ee"/><stop offset="48%" stop-color="#c9a46b"/><stop offset="80%" stop-color="#ff9700"/><stop offset="100%" stop-color="#f28a00"/></linearGradient></defs><circle cx="30" cy="30" r="25" fill="url(#a)"/><circle cx="30" cy="30" r="24.5" fill="none" stroke="#001428" stroke-opacity=".35"/><path d="M-8.863 40.412c-3.476 4.362.758 9.26 6.367 6.304 10.937-8.852 20.57-23.058 35.095-26.131-20.96 31.493 5.49 17.51 22.551 6.168-12.075 22.652 17.89 3.088 24.992-3.344 4.443 1.459 6.885-1.01 6.885-4.392 0-2.687-2.126-4.705-4.738-4.865-3.28-.2-5.84 3.616-4.087 7.08-3.096 2.151-11.759 7.664-15.396 7.856 9.436-20.48-17.591-4.848-25.393-1.11C56.95-5.411-.04 29.34-8.863 40.413"/></svg>