<?xml version="1.0" encoding="UTF-8" standalone="no"?>
<svg
   viewBox="0 0 60 60"
   role="img"
   aria-label="meander"
   version="1.1"
   id="svg8"
   sodipodi:docname="3-peak-gesture.svg"
   inkscape:version="1.4.3 (0d15f75, 2025-12-25)"
   xmlns:inkscape="http://www.inkscape.org/namespaces/inkscape"
   xmlns:sodipodi="http://sodipodi.sourceforge.net/DTD/sodipodi-0.dtd"
   xmlns="http://www.w3.org/2000/svg"
   xmlns:svg="http://www.w3.org/2000/svg">
  
  <title
     id="title1">meander</title>
  <defs
     id="defs5">
    <linearGradient
       id="base"
       x1="0"
       y1="60"
       x2="60"
       y2="0"
       gradientUnits="userSpaceOnUse">
      <stop
         offset="0%"
         stop-color="#16AEEB"
         id="stop1" />
      <stop
         offset="20%"
         stop-color="#28B7EE"
         id="stop2" />
      <stop
         offset="48%"
         stop-color="#C9A46B"
         id="stop3" />
      <stop
         offset="80%"
         stop-color="#FF9700"
         id="stop4" />
      <stop
         offset="100%"
         stop-color="#F28A00"
         id="stop5" />
    </linearGradient>
  </defs>
  <circle
     cx="30"
     cy="30"
     r="25"
     fill="url(#base)"
     id="circle5" />
  <circle
     cx="30"
     cy="30"
     r="24.5"
     fill="none"
     stroke="#001428"
     stroke-opacity="0.35"
     stroke-width="1"
     id="circle6" />
  <defs
     id="defs7">
    <clipPath
       id="peakClip">
      <circle
         cx="30"
         cy="30"
         r="23"
         id="circle7" />
    </clipPath>
  </defs>
  <g
     
     id="g8"
     transform="matrix(1.8950214,0,0,1.9457636,-46.157535,-25.393614)">
    <g
       transform="matrix(0.1,0,0,0.1,19,19)"
       fill="#000000"
       id="g7">
      <path
         d="m 6.8007812,148.19922 c -18.3400002,22.42 3.9996098,47.59039 33.5996098,32.40039 C 98.116334,135.10678 148.94736,62.094957 225.59961,46.300781 114.99336,208.15441 254.56896,136.29003 344.59961,78 c -63.72123,116.41768 94.40871,15.871999 131.88376,-17.184578 23.44463,7.495848 36.32718,-5.19017 36.32718,-22.575188 0,-13.807119 -11.2172,-24.180865 -25,-25 C 470.50062,12.211475 456.9899,31.822493 466.2422,49.630561 449.90467,60.68243 404.19396,89.015694 385,90 434.79234,-15.24832 292.17038,65.087853 251,84.300781 354.09526,-87.302434 53.358959,91.29269 6.8007812,148.19922 Z"
         id="path7" />
    </g>
  </g>
</svg>
