<svg xmlns="http://www.w3.org/2000/svg" aria-label="meander" viewBox="0 0 527 186"><title>meander</title><path d="M6.8 148.2c-18.34 22.42 4 47.59 33.6 32.4C98.116 135.107 148.947 62.095 225.6 46.3c-110.607 161.854 28.969 89.99 119 31.7-63.722 116.418 94.408 15.872 131.883-17.185 23.445 7.496 36.328-5.19 36.328-22.575 0-13.807-11.218-24.18-25-25-17.31-1.029-30.821 18.582-21.569 36.39C449.905 60.683 404.194 89.017 385 90c49.792-105.248-92.83-24.912-134-5.7C354.095-87.301 53.359 91.294 6.8 148.2"/></svg>